# MagicaVoxel @ ephtracy

# material
mtllib Door.mtl
usemtl palette

# normals
vn -1 0 0
vn 1 0 0
vn 0 0 1
vn 0 0 -1
vn 0 -1 0
vn 0 1 0

# texcoords
vt 0.978516 0.5
vt 0.986328 0.5

# verts
v -11 0 3
v -11 0 -3
v -11 3 3
v -11 3 -3
v -10 3 2
v -10 3 1
v -10 3 -2
v -10 5 2
v -10 5 1
v -10 6 1
v -10 6 -2
v -10 8 1
v -10 8 -2
v -10 9 -0
v -10 9 -2
v -10 12 -0
v -10 12 -2
v -10 13 1
v -10 13 -2
v -10 15 2
v -10 15 1
v -10 15 -2
v -9 15 2
v -9 15 1
v -9 15 -1
v -9 15 -2
v -9 16 2
v -9 16 1
v -9 17 2
v -9 17 1
v -9 17 -1
v -9 17 -2
v -8 17 2
v -8 17 1
v -8 17 -1
v -8 17 -2
v -8 18 -1
v -8 18 -2
v -8 19 2
v -8 19 1
v -8 19 -2
v -7 19 2
v -7 19 1
v -7 19 -2
v -7 20 2
v -7 20 -0
v -7 21 2
v -7 21 -0
v -7 21 -2
v -6 21 2
v -6 21 -0
v -6 21 -2
v -6 22 2
v -6 22 -0
v -6 22 -2
v 4 17 2
v 4 17 -2
v 4 19 2
v 4 19 -2
v 5 0 3
v 5 0 -3
v 5 3 3
v 5 3 -3
v 5 15 2
v 5 15 -2
v 5 17 2
v 5 17 -2
v 6 3 2
v 6 3 -1
v 6 3 -2
v 6 5 -1
v 6 5 -2
v 6 6 2
v 6 6 1
v 6 8 2
v 6 8 1
v 6 8 -1
v 6 8 -2
v 6 10 -1
v 6 10 -2
v 6 13 2
v 6 13 1
v 6 14 -1
v 6 14 -2
v 6 15 2
v 6 15 1
v 6 15 -1
v 6 15 -2
v -6 3 2
v -6 3 -1
v -6 3 -2
v -6 5 -1
v -6 5 -2
v -6 6 2
v -6 6 -0
v -6 7 -1
v -6 7 -2
v -6 8 2
v -6 8 -0
v -6 10 2
v -6 10 1
v -6 10 -1
v -6 10 -2
v -6 13 2
v -6 13 1
v -6 15 2
v -6 15 -2
v -5 0 3
v -5 0 -3
v -5 3 3
v -5 3 -3
v -5 15 2
v -5 15 -2
v -5 17 2
v -5 17 -2
v -4 17 2
v -4 17 -2
v -4 19 2
v -4 19 -2
v 6 21 2
v 6 21 1
v 6 21 -1
v 6 21 -2
v 6 22 2
v 6 22 1
v 6 22 -2
v 7 19 2
v 7 19 -0
v 7 19 -1
v 7 19 -2
v 7 20 -0
v 7 20 -1
v 7 21 2
v 7 21 -1
v 7 21 -2
v 8 17 2
v 8 17 -1
v 8 17 -2
v 8 19 2
v 8 19 -1
v 8 19 -2
v 9 15 2
v 9 15 1
v 9 15 -1
v 9 15 -2
v 9 17 2
v 9 17 -1
v 9 17 -2
v 10 3 2
v 10 3 1
v 10 3 -2
v 10 5 2
v 10 5 1
v 10 6 -1
v 10 6 -2
v 10 8 1
v 10 8 -1
v 10 8 -2
v 10 10 2
v 10 10 1
v 10 11 1
v 10 11 -1
v 10 12 2
v 10 12 1
v 10 13 1
v 10 13 -1
v 10 15 2
v 10 15 1
v 10 15 -1
v 10 15 -2
v 11 0 3
v 11 0 -3
v 11 3 3
v 11 3 -3
v -11 0 3
v -11 3 3
v -5 0 3
v -5 3 3
v 5 0 3
v 5 3 3
v 11 0 3
v 11 3 3
v -10 3 2
v -10 5 2
v -10 15 2
v -9 6 2
v -9 8 2
v -9 10 2
v -9 13 2
v -9 15 2
v -9 16 2
v -9 17 2
v -8 16 2
v -8 17 2
v -8 19 2
v -7 3 2
v -7 5 2
v -7 19 2
v -7 20 2
v -7 21 2
v -6 3 2
v -6 6 2
v -6 8 2
v -6 10 2
v -6 13 2
v -6 15 2
v -6 18 2
v -6 19 2
v -6 21 2
v -6 22 2
v -5 15 2
v -5 17 2
v -5 18 2
v -4 17 2
v -4 19 2
v -4 20 2
v -4 22 2
v 4 17 2
v 4 19 2
v 5 15 2
v 5 17 2
v 5 19 2
v 5 22 2
v 6 3 2
v 6 6 2
v 6 8 2
v 6 13 2
v 6 15 2
v 6 21 2
v 6 22 2
v 7 3 2
v 7 5 2
v 7 9 2
v 7 11 2
v 7 19 2
v 7 21 2
v 8 13 2
v 8 15 2
v 8 17 2
v 8 19 2
v 9 6 2
v 9 8 2
v 9 9 2
v 9 10 2
v 9 11 2
v 9 12 2
v 9 15 2
v 9 17 2
v 10 3 2
v 10 5 2
v 10 10 2
v 10 12 2
v 10 15 2
v -10 3 -2
v -10 6 -2
v -10 8 -2
v -10 9 -2
v -10 12 -2
v -10 13 -2
v -10 15 -2
v -9 3 -2
v -9 5 -2
v -9 6 -2
v -9 8 -2
v -9 9 -2
v -9 12 -2
v -9 13 -2
v -9 15 -2
v -9 17 -2
v -8 7 -2
v -8 10 -2
v -8 17 -2
v -8 18 -2
v -8 19 -2
v -7 15 -2
v -7 16 -2
v -7 19 -2
v -7 21 -2
v -6 3 -2
v -6 5 -2
v -6 7 -2
v -6 10 -2
v -6 15 -2
v -6 16 -2
v -6 18 -2
v -6 21 -2
v -6 22 -2
v -5 15 -2
v -5 17 -2
v -4 17 -2
v -4 19 -2
v -3 21 -2
v -3 22 -2
v -1 21 -2
v -1 22 -2
v 0 19 -2
v 0 21 -2
v 3 19 -2
v 3 21 -2
v 3 22 -2
v 4 17 -2
v 4 19 -2
v 5 15 -2
v 5 17 -2
v 5 19 -2
v 5 21 -2
v 5 22 -2
v 6 3 -2
v 6 5 -2
v 6 8 -2
v 6 10 -2
v 6 14 -2
v 6 15 -2
v 6 16 -2
v 6 21 -2
v 6 22 -2
v 7 6 -2
v 7 8 -2
v 7 10 -2
v 7 11 -2
v 7 12 -2
v 7 14 -2
v 7 19 -2
v 7 21 -2
v 8 8 -2
v 8 9 -2
v 8 15 -2
v 8 16 -2
v 8 17 -2
v 8 19 -2
v 9 3 -2
v 9 5 -2
v 9 9 -2
v 9 11 -2
v 9 12 -2
v 9 15 -2
v 9 17 -2
v 10 3 -2
v 10 6 -2
v 10 8 -2
v 10 15 -2
v -11 0 -3
v -11 3 -3
v -5 0 -3
v -5 3 -3
v 5 0 -3
v 5 3 -3
v 11 0 -3
v 11 3 -3
v -11 0 3
v -5 0 3
v 5 0 3
v 11 0 3
v -11 0 -3
v -5 0 -3
v 5 0 -3
v 11 0 -3
v -6 15 2
v -5 15 2
v 5 15 2
v 6 15 2
v 6 15 1
v 6 15 -1
v -6 15 -2
v -5 15 -2
v 5 15 -2
v 6 15 -2
v -5 17 2
v -4 17 2
v 4 17 2
v 5 17 2
v -5 17 -2
v -4 17 -2
v 4 17 -2
v 5 17 -2
v -4 19 2
v 4 19 2
v 0 19 -1
v 3 19 -1
v -4 19 -2
v 0 19 -2
v 3 19 -2
v 4 19 -2
v -11 3 3
v -5 3 3
v 5 3 3
v 11 3 3
v -10 3 2
v -7 3 2
v -6 3 2
v 6 3 2
v 7 3 2
v 10 3 2
v -10 3 1
v 10 3 1
v -6 3 -1
v 6 3 -1
v -10 3 -2
v -9 3 -2
v -6 3 -2
v 6 3 -2
v 9 3 -2
v 10 3 -2
v -11 3 -3
v -5 3 -3
v 5 3 -3
v 11 3 -3
v -10 15 2
v -9 15 2
v 9 15 2
v 10 15 2
v -10 15 1
v -9 15 1
v 9 15 1
v 10 15 1
v -9 15 -1
v 9 15 -1
v 10 15 -1
v -10 15 -2
v -9 15 -2
v 9 15 -2
v 10 15 -2
v -9 17 2
v -8 17 2
v 8 17 2
v 9 17 2
v -9 17 1
v -8 17 1
v -9 17 -1
v -8 17 -1
v 8 17 -1
v 9 17 -1
v -9 17 -2
v -8 17 -2
v 8 17 -2
v 9 17 -2
v -8 19 2
v -7 19 2
v 7 19 2
v 8 19 2
v -8 19 1
v -7 19 1
v 7 19 -0
v 7 19 -1
v 8 19 -1
v -8 19 -2
v -7 19 -2
v 7 19 -2
v 8 19 -2
v -7 21 2
v -6 21 2
v 6 21 2
v 7 21 2
v 6 21 1
v -7 21 -0
v -6 21 -0
v 6 21 -1
v 7 21 -1
v -7 21 -2
v -6 21 -2
v 6 21 -2
v 7 21 -2
v -6 22 2
v -4 22 2
v 5 22 2
v 6 22 2
v -3 22 1
v -1 22 1
v 2 22 1
v 4 22 1
v 5 22 1
v 6 22 1
v -6 22 -0
v -4 22 -0
v 4 22 -0
v 5 22 -0
v 2 22 -1
v 3 22 -1
v -6 22 -2
v -3 22 -2
v -1 22 -2
v 3 22 -2
v 5 22 -2
v 6 22 -2

# faces
f 3/2/1 2/2/1 1/2/1
f 4/2/1 2/2/1 3/2/1
f 8/2/1 6/2/1 5/2/1
f 9/1/1 7/1/1 6/1/1
f 9/2/1 6/2/1 8/2/1
f 10/1/1 9/1/1 8/1/1
f 10/1/1 7/1/1 9/1/1
f 11/1/1 7/1/1 10/1/1
f 12/1/1 10/1/1 8/1/1
f 12/2/1 11/2/1 10/2/1
f 13/2/1 11/2/1 12/2/1
f 14/1/1 13/1/1 12/1/1
f 15/1/1 13/1/1 14/1/1
f 16/1/1 14/1/1 12/1/1
f 16/2/1 15/2/1 14/2/1
f 17/2/1 15/2/1 16/2/1
f 18/1/1 12/1/1 8/1/1
f 18/1/1 16/1/1 12/1/1
f 18/1/1 17/1/1 16/1/1
f 19/1/1 17/1/1 18/1/1
f 20/1/1 18/1/1 8/1/1
f 21/2/1 19/2/1 18/2/1
f 21/1/1 18/1/1 20/1/1
f 22/2/1 19/2/1 21/2/1
f 27/1/1 24/1/1 23/1/1
f 27/1/1 25/1/1 24/1/1
f 28/1/1 25/1/1 27/1/1
f 29/2/1 28/2/1 27/2/1
f 30/1/1 25/1/1 28/1/1
f 30/2/1 28/2/1 29/2/1
f 31/2/1 26/2/1 25/2/1
f 31/1/1 25/1/1 30/1/1
f 32/2/1 26/2/1 31/2/1
f 37/1/1 35/1/1 34/1/1
f 37/2/1 36/2/1 35/2/1
f 38/2/1 36/2/1 37/2/1
f 39/2/1 34/2/1 33/2/1
f 40/1/1 37/1/1 34/1/1
f 40/2/1 34/2/1 39/2/1
f 40/1/1 38/1/1 37/1/1
f 41/1/1 38/1/1 40/1/1
f 45/1/1 43/1/1 42/1/1
f 45/1/1 44/1/1 43/1/1
f 46/1/1 44/1/1 45/1/1
f 47/2/1 46/2/1 45/2/1
f 48/1/1 44/1/1 46/1/1
f 48/2/1 46/2/1 47/2/1
f 49/1/1 44/1/1 48/1/1
f 53/2/1 51/2/1 50/2/1
f 54/1/1 52/1/1 51/1/1
f 54/2/1 51/2/1 53/2/1
f 55/1/1 52/1/1 54/1/1
f 58/1/1 57/1/1 56/1/1
f 59/1/1 57/1/1 58/1/1
f 62/2/1 61/2/1 60/2/1
f 63/2/1 61/2/1 62/2/1
f 66/1/1 65/1/1 64/1/1
f 67/1/1 65/1/1 66/1/1
f 71/1/1 69/1/1 68/1/1
f 71/2/1 70/2/1 69/2/1
f 72/2/1 70/2/1 71/2/1
f 73/1/1 71/1/1 68/1/1
f 73/1/1 72/1/1 71/1/1
f 74/1/1 72/1/1 73/1/1
f 75/2/1 74/2/1 73/2/1
f 76/1/1 72/1/1 74/1/1
f 76/2/1 74/2/1 75/2/1
f 77/1/1 72/1/1 76/1/1
f 78/1/1 72/1/1 77/1/1
f 79/1/1 76/1/1 75/1/1
f 79/1/1 77/1/1 76/1/1
f 79/2/1 78/2/1 77/2/1
f 80/2/1 78/2/1 79/2/1
f 81/1/1 79/1/1 75/1/1
f 81/1/1 80/1/1 79/1/1
f 82/1/1 80/1/1 81/1/1
f 83/1/1 80/1/1 82/1/1
f 84/1/1 80/1/1 83/1/1
f 85/2/1 82/2/1 81/2/1
f 86/1/1 83/1/1 82/1/1
f 86/2/1 82/2/1 85/2/1
f 87/2/1 84/2/1 83/2/1
f 87/1/1 83/1/1 86/1/1
f 88/2/1 84/2/1 87/2/1
f 89/1/2 90/1/2 92/1/2
f 90/2/2 91/2/2 92/2/2
f 92/2/2 91/2/2 93/2/2
f 89/1/2 92/1/2 94/1/2
f 92/1/2 93/1/2 94/1/2
f 94/1/2 93/1/2 95/1/2
f 95/1/2 93/1/2 96/1/2
f 96/1/2 93/1/2 97/1/2
f 94/2/2 95/2/2 98/2/2
f 95/1/2 96/1/2 99/1/2
f 98/2/2 95/2/2 99/2/2
f 98/1/2 99/1/2 100/1/2
f 100/1/2 99/1/2 101/1/2
f 96/2/2 97/2/2 102/2/2
f 101/1/2 99/1/2 102/1/2
f 99/1/2 96/1/2 102/1/2
f 102/2/2 97/2/2 103/2/2
f 100/2/2 101/2/2 104/2/2
f 101/1/2 102/1/2 105/1/2
f 104/2/2 101/2/2 105/2/2
f 102/1/2 103/1/2 105/1/2
f 104/1/2 105/1/2 106/1/2
f 105/1/2 103/1/2 107/1/2
f 106/1/2 105/1/2 107/1/2
f 108/2/2 109/2/2 110/2/2
f 110/2/2 109/2/2 111/2/2
f 112/1/2 113/1/2 114/1/2
f 114/1/2 113/1/2 115/1/2
f 116/1/2 117/1/2 118/1/2
f 118/1/2 117/1/2 119/1/2
f 120/2/2 121/2/2 124/2/2
f 122/1/2 123/1/2 125/1/2
f 124/2/2 121/2/2 125/2/2
f 121/1/2 122/1/2 125/1/2
f 125/1/2 123/1/2 126/1/2
f 127/2/2 128/2/2 131/2/2
f 129/1/2 130/1/2 131/1/2
f 128/1/2 129/1/2 131/1/2
f 131/1/2 130/1/2 132/1/2
f 127/2/2 131/2/2 133/2/2
f 131/2/2 132/2/2 133/2/2
f 132/1/2 130/1/2 134/1/2
f 133/2/2 132/2/2 134/2/2
f 134/1/2 130/1/2 135/1/2
f 136/1/2 137/1/2 139/1/2
f 137/2/2 138/2/2 140/2/2
f 139/1/2 137/1/2 140/1/2
f 140/2/2 138/2/2 141/2/2
f 142/2/2 143/2/2 146/2/2
f 143/2/2 144/2/2 146/2/2
f 144/1/2 145/1/2 147/1/2
f 146/2/2 144/2/2 147/2/2
f 147/1/2 145/1/2 148/1/2
f 149/2/2 150/2/2 152/2/2
f 150/1/2 151/1/2 153/1/2
f 152/2/2 150/2/2 153/2/2
f 152/1/2 153/1/2 154/1/2
f 153/1/2 151/1/2 154/1/2
f 154/1/2 151/1/2 155/1/2
f 152/1/2 154/1/2 156/1/2
f 154/2/2 155/2/2 157/2/2
f 156/1/2 154/1/2 157/1/2
f 157/2/2 155/2/2 158/2/2
f 152/1/2 156/1/2 159/1/2
f 156/2/2 157/2/2 160/2/2
f 159/1/2 156/1/2 160/1/2
f 159/2/2 160/2/2 161/2/2
f 160/2/2 157/2/2 161/2/2
f 157/1/2 158/1/2 162/1/2
f 161/2/2 157/2/2 162/2/2
f 159/2/2 161/2/2 163/2/2
f 161/1/2 162/1/2 164/1/2
f 163/2/2 161/2/2 164/2/2
f 163/1/2 164/1/2 165/1/2
f 164/1/2 162/1/2 165/1/2
f 162/1/2 158/1/2 166/1/2
f 165/1/2 162/1/2 166/1/2
f 163/1/2 165/1/2 167/1/2
f 165/2/2 166/2/2 168/2/2
f 167/1/2 165/1/2 168/1/2
f 166/1/2 158/1/2 169/1/2
f 168/2/2 166/2/2 169/2/2
f 169/1/2 158/1/2 170/1/2
f 171/2/2 172/2/2 173/2/2
f 173/2/2 172/2/2 174/2/2
f 177/2/3 176/2/3 175/2/3
f 178/2/3 176/2/3 177/2/3
f 181/2/3 180/2/3 179/2/3
f 182/2/3 180/2/3 181/2/3
f 186/1/3 185/1/3 184/1/3
f 187/1/3 185/1/3 186/1/3
f 188/1/3 185/1/3 187/1/3
f 189/1/3 185/1/3 188/1/3
f 190/1/3 185/1/3 189/1/3
f 193/1/3 190/1/3 189/1/3
f 193/2/3 192/2/3 191/2/3
f 193/1/3 191/1/3 190/1/3
f 194/2/3 192/2/3 193/2/3
f 196/2/3 184/2/3 183/2/3
f 197/1/3 186/1/3 184/1/3
f 197/2/3 184/2/3 196/2/3
f 198/2/3 195/2/3 194/2/3
f 201/1/3 197/1/3 196/1/3
f 202/1/3 186/1/3 197/1/3
f 202/1/3 197/1/3 201/1/3
f 202/2/3 187/2/3 186/2/3
f 203/1/3 188/1/3 187/1/3
f 203/2/3 187/2/3 202/2/3
f 204/2/3 189/2/3 188/2/3
f 204/1/3 188/1/3 203/1/3
f 205/1/3 193/1/3 189/1/3
f 205/2/3 189/2/3 204/2/3
f 205/1/3 194/1/3 193/1/3
f 206/1/3 194/1/3 205/1/3
f 207/2/3 198/2/3 194/2/3
f 208/1/3 199/1/3 198/1/3
f 208/2/3 198/2/3 207/2/3
f 209/2/3 200/2/3 199/2/3
f 211/1/3 194/1/3 206/1/3
f 212/2/3 207/2/3 194/2/3
f 212/1/3 194/1/3 211/1/3
f 213/1/3 208/1/3 207/1/3
f 213/2/3 207/2/3 212/2/3
f 214/1/3 213/1/3 212/1/3
f 215/1/3 208/1/3 213/1/3
f 215/1/3 213/1/3 214/1/3
f 215/1/3 199/1/3 208/1/3
f 216/2/3 210/2/3 209/2/3
f 216/1/3 199/1/3 215/1/3
f 216/2/3 209/2/3 199/2/3
f 217/2/3 210/2/3 216/2/3
f 219/1/3 216/1/3 215/1/3
f 219/1/3 217/1/3 216/1/3
f 221/1/3 219/1/3 218/1/3
f 222/1/3 217/1/3 219/1/3
f 222/1/3 219/1/3 221/1/3
f 223/1/3 217/1/3 222/1/3
f 228/1/3 221/1/3 220/1/3
f 228/1/3 222/1/3 221/1/3
f 229/2/3 223/2/3 222/2/3
f 230/2/3 223/2/3 229/2/3
f 231/1/3 225/1/3 224/1/3
f 232/1/3 225/1/3 231/1/3
f 233/1/3 227/1/3 226/1/3
f 234/1/3 227/1/3 233/1/3
f 235/1/3 222/1/3 228/1/3
f 235/2/3 229/2/3 222/2/3
f 236/2/3 229/2/3 235/2/3
f 237/2/3 228/2/3 227/2/3
f 237/1/3 227/1/3 234/1/3
f 238/1/3 235/1/3 228/1/3
f 238/2/3 228/2/3 237/2/3
f 239/1/3 235/1/3 238/1/3
f 240/1/3 235/1/3 239/1/3
f 241/1/3 225/1/3 232/1/3
f 241/2/3 226/2/3 225/2/3
f 242/1/3 233/1/3 226/1/3
f 242/2/3 226/2/3 241/2/3
f 243/2/3 234/2/3 233/2/3
f 243/1/3 233/1/3 242/1/3
f 244/2/3 234/2/3 243/2/3
f 245/1/3 237/1/3 234/1/3
f 245/2/3 234/2/3 244/2/3
f 245/1/3 238/1/3 237/1/3
f 246/1/3 238/1/3 245/1/3
f 247/2/3 239/2/3 238/2/3
f 247/1/3 238/1/3 246/1/3
f 248/2/3 239/2/3 247/2/3
f 249/2/3 232/2/3 231/2/3
f 250/1/3 244/1/3 243/1/3
f 250/2/3 232/2/3 249/2/3
f 250/1/3 242/1/3 241/1/3
f 250/1/3 241/1/3 232/1/3
f 250/1/3 243/1/3 242/1/3
f 251/2/3 246/2/3 245/2/3
f 251/1/3 244/1/3 250/1/3
f 251/2/3 245/2/3 244/2/3
f 252/1/3 247/1/3 246/1/3
f 252/2/3 246/2/3 251/2/3
f 253/1/3 247/1/3 252/1/3
f 254/1/4 255/1/4 261/1/4
f 261/1/4 255/1/4 262/1/4
f 255/2/4 256/2/4 263/2/4
f 262/1/4 255/1/4 263/1/4
f 256/1/4 257/1/4 264/1/4
f 263/2/4 256/2/4 264/2/4
f 257/2/4 258/2/4 265/2/4
f 264/1/4 257/1/4 265/1/4
f 258/1/4 259/1/4 266/1/4
f 265/2/4 258/2/4 266/2/4
f 259/2/4 260/2/4 267/2/4
f 266/1/4 259/1/4 267/1/4
f 267/2/4 260/2/4 268/2/4
f 265/1/4 266/1/4 270/1/4
f 262/1/4 263/1/4 270/1/4
f 267/1/4 268/1/4 270/1/4
f 266/1/4 267/1/4 270/1/4
f 263/1/4 264/1/4 270/1/4
f 264/1/4 265/1/4 270/1/4
f 270/1/4 268/1/4 271/1/4
f 268/2/4 269/2/4 272/2/4
f 271/1/4 268/1/4 275/1/4
f 268/2/4 272/2/4 275/2/4
f 272/2/4 273/2/4 275/2/4
f 275/2/4 273/2/4 276/2/4
f 273/1/4 274/1/4 277/1/4
f 261/2/4 262/2/4 279/2/4
f 262/1/4 270/1/4 280/1/4
f 279/2/4 262/2/4 280/2/4
f 270/2/4 271/2/4 281/2/4
f 280/1/4 270/1/4 281/1/4
f 271/1/4 275/1/4 282/1/4
f 281/2/4 271/2/4 282/2/4
f 275/1/4 276/1/4 282/1/4
f 282/1/4 276/1/4 283/1/4
f 276/2/4 273/2/4 284/2/4
f 283/1/4 276/1/4 284/1/4
f 277/1/4 278/1/4 285/1/4
f 284/2/4 273/2/4 285/2/4
f 273/1/4 277/1/4 285/1/4
f 285/1/4 278/1/4 286/1/4
f 286/1/4 287/1/4 288/1/4
f 285/1/4 286/1/4 288/1/4
f 284/1/4 285/1/4 288/1/4
f 283/1/4 284/1/4 288/1/4
f 288/1/4 287/1/4 289/1/4
f 289/1/4 287/1/4 290/1/4
f 290/1/4 287/1/4 291/1/4
f 291/1/4 287/1/4 292/1/4
f 292/1/4 287/1/4 293/1/4
f 291/1/4 292/1/4 294/1/4
f 292/2/4 293/2/4 294/2/4
f 294/2/4 293/2/4 295/2/4
f 291/1/4 294/1/4 296/1/4
f 294/1/4 295/1/4 296/1/4
f 296/1/4 295/1/4 297/1/4
f 296/2/4 297/2/4 298/2/4
f 297/1/4 295/1/4 299/1/4
f 298/2/4 297/2/4 299/2/4
f 299/1/4 295/1/4 300/1/4
f 298/1/4 299/1/4 302/1/4
f 301/1/4 302/1/4 304/1/4
f 302/1/4 299/1/4 305/1/4
f 304/1/4 302/1/4 305/1/4
f 299/2/4 300/2/4 306/2/4
f 305/1/4 299/1/4 306/1/4
f 306/2/4 300/2/4 307/2/4
f 303/1/4 304/1/4 313/1/4
f 313/1/4 304/1/4 314/1/4
f 305/1/4 306/1/4 315/1/4
f 306/1/4 307/1/4 315/1/4
f 315/1/4 307/1/4 316/1/4
f 309/1/4 310/1/4 317/1/4
f 310/2/4 311/2/4 318/2/4
f 317/1/4 310/1/4 318/1/4
f 311/1/4 312/1/4 319/1/4
f 318/2/4 311/2/4 319/2/4
f 319/1/4 312/1/4 320/1/4
f 320/1/4 312/1/4 321/1/4
f 313/2/4 314/2/4 322/2/4
f 321/1/4 312/1/4 322/1/4
f 312/2/4 313/2/4 322/2/4
f 304/2/4 305/2/4 323/2/4
f 305/1/4 315/1/4 323/1/4
f 323/1/4 315/1/4 324/1/4
f 317/2/4 318/2/4 325/2/4
f 319/2/4 320/2/4 325/2/4
f 318/2/4 319/2/4 325/2/4
f 325/2/4 320/2/4 326/2/4
f 322/2/4 314/2/4 327/2/4
f 321/2/4 322/2/4 327/2/4
f 314/1/4 304/1/4 328/1/4
f 327/2/4 314/2/4 328/2/4
f 304/2/4 323/2/4 329/2/4
f 328/1/4 304/1/4 329/1/4
f 329/2/4 323/2/4 330/2/4
f 308/2/4 309/2/4 331/2/4
f 309/1/4 317/1/4 332/1/4
f 331/2/4 309/2/4 332/2/4
f 326/2/4 320/2/4 333/2/4
f 325/1/4 326/1/4 333/1/4
f 320/1/4 321/1/4 334/1/4
f 333/2/4 320/2/4 334/2/4
f 321/2/4 327/2/4 335/2/4
f 334/1/4 321/1/4 335/1/4
f 327/1/4 328/1/4 336/1/4
f 335/2/4 327/2/4 336/2/4
f 328/1/4 329/1/4 336/1/4
f 336/1/4 329/1/4 337/1/4
f 331/1/4 332/1/4 338/1/4
f 332/1/4 317/1/4 339/1/4
f 338/1/4 332/1/4 339/1/4
f 317/2/4 325/2/4 339/2/4
f 333/1/4 334/1/4 340/1/4
f 339/2/4 325/2/4 340/2/4
f 325/1/4 333/1/4 340/1/4
f 335/1/4 336/1/4 340/1/4
f 334/1/4 335/1/4 340/1/4
f 340/1/4 336/1/4 341/1/4
f 342/2/4 343/2/4 344/2/4
f 344/2/4 343/2/4 345/2/4
f 346/2/4 347/2/4 348/2/4
f 348/2/4 347/2/4 349/2/4
f 354/2/5 351/2/5 350/2/5
f 355/2/5 351/2/5 354/2/5
f 356/2/5 353/2/5 352/2/5
f 357/2/5 353/2/5 356/2/5
f 362/1/5 361/1/5 360/1/5
f 363/1/5 362/1/5 360/1/5
f 364/1/5 359/1/5 358/1/5
f 365/1/5 359/1/5 364/1/5
f 366/1/5 363/1/5 360/1/5
f 367/1/5 363/1/5 366/1/5
f 372/1/5 369/1/5 368/1/5
f 373/1/5 369/1/5 372/1/5
f 374/1/5 371/1/5 370/1/5
f 375/1/5 371/1/5 374/1/5
f 378/1/5 377/1/5 376/1/5
f 379/1/5 377/1/5 378/1/5
f 380/1/5 378/1/5 376/1/5
f 381/2/5 379/2/5 378/2/5
f 381/1/5 378/1/5 380/1/5
f 382/1/5 377/1/5 379/1/5
f 382/2/5 379/2/5 381/2/5
f 383/1/5 377/1/5 382/1/5
f 384/2/6 385/2/6 388/2/6
f 388/2/6 385/2/6 389/2/6
f 389/2/6 385/2/6 390/2/6
f 386/2/6 387/2/6 391/2/6
f 391/2/6 387/2/6 392/2/6
f 392/2/6 387/2/6 393/2/6
f 384/2/6 388/2/6 394/2/6
f 393/2/6 387/2/6 395/2/6
f 390/2/6 385/2/6 396/2/6
f 386/2/6 391/2/6 397/2/6
f 384/2/6 394/2/6 398/2/6
f 396/2/6 385/2/6 400/2/6
f 386/2/6 397/2/6 401/2/6
f 395/2/6 387/2/6 403/2/6
f 398/2/6 399/2/6 404/2/6
f 399/2/6 400/2/6 404/2/6
f 384/2/6 398/2/6 404/2/6
f 400/2/6 385/2/6 405/2/6
f 404/2/6 400/2/6 405/2/6
f 401/2/6 402/2/6 406/2/6
f 386/2/6 401/2/6 406/2/6
f 402/2/6 403/2/6 406/2/6
f 403/2/6 387/2/6 407/2/6
f 406/2/6 403/2/6 407/2/6
f 408/1/6 409/1/6 412/1/6
f 412/1/6 409/1/6 413/1/6
f 410/1/6 411/1/6 414/1/6
f 414/1/6 411/1/6 415/1/6
f 412/2/6 413/2/6 416/2/6
f 414/2/6 415/2/6 417/2/6
f 417/2/6 415/2/6 418/2/6
f 412/2/6 416/2/6 419/2/6
f 419/2/6 416/2/6 420/2/6
f 417/1/6 418/1/6 421/1/6
f 421/1/6 418/1/6 422/1/6
f 423/2/6 424/2/6 427/2/6
f 427/2/6 424/2/6 428/2/6
f 427/1/6 428/1/6 429/1/6
f 429/1/6 428/1/6 430/1/6
f 425/2/6 426/2/6 431/2/6
f 431/2/6 426/2/6 432/2/6
f 429/2/6 430/2/6 433/2/6
f 433/2/6 430/2/6 434/2/6
f 431/1/6 432/1/6 435/1/6
f 435/1/6 432/1/6 436/1/6
f 437/2/6 438/2/6 441/2/6
f 441/2/6 438/2/6 442/2/6
f 439/1/6 440/1/6 443/1/6
f 443/1/6 440/1/6 444/1/6
f 444/1/6 440/1/6 445/1/6
f 441/1/6 442/1/6 446/1/6
f 446/1/6 442/1/6 447/1/6
f 444/2/6 445/2/6 448/2/6
f 448/2/6 445/2/6 449/2/6
f 452/2/6 453/2/6 454/2/6
f 450/2/6 451/2/6 455/2/6
f 455/2/6 451/2/6 456/2/6
f 454/2/6 453/2/6 457/2/6
f 457/2/6 453/2/6 458/2/6
f 455/1/6 456/1/6 459/1/6
f 459/1/6 456/1/6 460/1/6
f 457/1/6 458/1/6 461/1/6
f 461/1/6 458/1/6 462/1/6
f 464/1/6 465/1/6 467/1/6
f 467/1/6 465/1/6 468/1/6
f 468/1/6 465/1/6 469/1/6
f 469/1/6 465/1/6 470/1/6
f 465/2/6 466/2/6 471/2/6
f 470/1/6 465/1/6 471/1/6
f 471/2/6 466/2/6 472/2/6
f 463/2/6 464/2/6 473/2/6
f 464/1/6 467/1/6 474/1/6
f 473/2/6 464/2/6 474/2/6
f 469/2/6 470/2/6 475/2/6
f 470/1/6 471/1/6 475/1/6
f 471/1/6 472/1/6 475/1/6
f 475/1/6 472/1/6 476/1/6
f 468/1/6 469/1/6 477/1/6
f 469/2/6 475/2/6 477/2/6
f 475/2/6 476/2/6 477/2/6
f 477/2/6 476/2/6 478/2/6
f 473/1/6 474/1/6 479/1/6
f 474/1/6 467/1/6 480/1/6
f 479/1/6 474/1/6 480/1/6
f 467/2/6 468/2/6 480/2/6
f 477/1/6 478/1/6 481/1/6
f 480/2/6 468/2/6 481/2/6
f 468/1/6 477/1/6 481/1/6
f 478/2/6 476/2/6 482/2/6
f 481/1/6 478/1/6 482/1/6
f 476/1/6 472/1/6 483/1/6
f 482/2/6 476/2/6 483/2/6
f 483/1/6 472/1/6 484/1/6
