# MagicaVoxel @ ephtracy

# material
mtllib sword.mtl
usemtl palette

# normals
vn -1 0 0
vn 1 0 0
vn 0 0 1
vn 0 0 -1
vn 0 -1 0
vn 0 1 0

# texcoords
vt 0.951172 0.5
vt 0.958984 0.5
vt 0.990234 0.5

# verts
v -3 3 0.5
v -3 3 -0.5
v -3 4 0.5
v -3 4 -0.5
v -2 3 1.5
v -2 3 0.5
v -2 3 -0.5
v -2 3 -1.5
v -2 4 1.5
v -2 4 0.5
v -2 4 -0.5
v -2 4 -1.5
v -2 12 0.5
v -2 12 -0.5
v -1 0 0.5
v -1 0 -0.5
v -1 3 0.5
v -1 3 -0.5
v -1 4 1.5
v -1 4 0.5
v -1 4 -0.5
v -1 4 -1.5
v -1 11 1.5
v -1 11 0.5
v -1 11 -0.5
v -1 11 -1.5
v -1 12 0.5
v -1 12 -0.5
v -1 13 0.5
v -1 13 -0.5
v 1 0 0.5
v 1 0 -0.5
v 1 3 0.5
v 1 3 -0.5
v 1 4 1.5
v 1 4 0.5
v 1 4 -0.5
v 1 4 -1.5
v 1 11 1.5
v 1 11 0.5
v 1 11 -0.5
v 1 11 -1.5
v 1 12 0.5
v 1 12 -0.5
v 1 13 0.5
v 1 13 -0.5
v 2 3 1.5
v 2 3 0.5
v 2 3 -0.5
v 2 3 -1.5
v 2 4 1.5
v 2 4 0.5
v 2 4 -0.5
v 2 4 -1.5
v 2 12 0.5
v 2 12 -0.5
v 3 3 0.5
v 3 3 -0.5
v 3 4 0.5
v 3 4 -0.5
v -2 3 1.5
v -2 4 1.5
v -1 4 1.5
v -1 11 1.5
v 1 4 1.5
v 1 11 1.5
v 2 3 1.5
v 2 4 1.5
v -3 3 0.5
v -3 4 0.5
v -2 3 0.5
v -2 4 0.5
v -2 12 0.5
v -1 0 0.5
v -1 3 0.5
v -1 4 0.5
v -1 11 0.5
v -1 12 0.5
v -1 13 0.5
v 1 0 0.5
v 1 3 0.5
v 1 4 0.5
v 1 11 0.5
v 1 12 0.5
v 1 13 0.5
v 2 3 0.5
v 2 4 0.5
v 2 12 0.5
v 3 3 0.5
v 3 4 0.5
v -3 3 -0.5
v -3 4 -0.5
v -2 3 -0.5
v -2 4 -0.5
v -2 12 -0.5
v -1 0 -0.5
v -1 3 -0.5
v -1 4 -0.5
v -1 11 -0.5
v -1 12 -0.5
v -1 13 -0.5
v 1 0 -0.5
v 1 3 -0.5
v 1 4 -0.5
v 1 11 -0.5
v 1 12 -0.5
v 1 13 -0.5
v 2 3 -0.5
v 2 4 -0.5
v 2 12 -0.5
v 3 3 -0.5
v 3 4 -0.5
v -2 3 -1.5
v -2 4 -1.5
v -1 4 -1.5
v -1 11 -1.5
v 1 4 -1.5
v 1 11 -1.5
v 2 3 -1.5
v 2 4 -1.5
v -1 0 0.5
v 1 0 0.5
v -1 0 -0.5
v 1 0 -0.5
v -2 3 1.5
v 2 3 1.5
v -3 3 0.5
v -2 3 0.5
v -1 3 0.5
v 1 3 0.5
v 2 3 0.5
v 3 3 0.5
v -3 3 -0.5
v -2 3 -0.5
v -1 3 -0.5
v 1 3 -0.5
v 2 3 -0.5
v 3 3 -0.5
v -2 3 -1.5
v 2 3 -1.5
v -2 4 1.5
v -1 4 1.5
v 1 4 1.5
v 2 4 1.5
v -3 4 0.5
v -2 4 0.5
v -1 4 0.5
v 1 4 0.5
v 2 4 0.5
v 3 4 0.5
v -3 4 -0.5
v -2 4 -0.5
v -1 4 -0.5
v 1 4 -0.5
v 2 4 -0.5
v 3 4 -0.5
v -2 4 -1.5
v -1 4 -1.5
v 1 4 -1.5
v 2 4 -1.5
v -1 11 1.5
v 1 11 1.5
v -1 11 0.5
v 1 11 0.5
v -1 11 -0.5
v 1 11 -0.5
v -1 11 -1.5
v 1 11 -1.5
v -2 12 0.5
v -1 12 0.5
v 1 12 0.5
v 2 12 0.5
v -2 12 -0.5
v -1 12 -0.5
v 1 12 -0.5
v 2 12 -0.5
v -1 13 0.5
v 1 13 0.5
v -1 13 -0.5
v 1 13 -0.5

# faces
f 3/1/1 2/1/1 1/1/1
f 4/1/1 2/1/1 3/1/1
f 9/1/1 6/1/1 5/1/1
f 10/1/1 6/1/1 9/1/1
f 11/1/1 8/1/1 7/1/1
f 12/1/1 8/1/1 11/1/1
f 13/2/1 11/2/1 10/2/1
f 14/2/1 11/2/1 13/2/1
f 17/3/1 16/3/1 15/3/1
f 18/3/1 16/3/1 17/3/1
f 23/2/1 20/2/1 19/2/1
f 24/2/1 20/2/1 23/2/1
f 25/2/1 22/2/1 21/2/1
f 26/2/1 22/2/1 25/2/1
f 29/2/1 28/2/1 27/2/1
f 30/2/1 28/2/1 29/2/1
f 31/3/2 32/3/2 33/3/2
f 33/3/2 32/3/2 34/3/2
f 35/2/2 36/2/2 39/2/2
f 39/2/2 36/2/2 40/2/2
f 37/2/2 38/2/2 41/2/2
f 41/2/2 38/2/2 42/2/2
f 43/2/2 44/2/2 45/2/2
f 45/2/2 44/2/2 46/2/2
f 47/1/2 48/1/2 51/1/2
f 51/1/2 48/1/2 52/1/2
f 49/1/2 50/1/2 53/1/2
f 53/1/2 50/1/2 54/1/2
f 52/2/2 53/2/2 55/2/2
f 55/2/2 53/2/2 56/2/2
f 57/1/2 58/1/2 59/1/2
f 59/1/2 58/1/2 60/1/2
f 63/1/3 62/1/3 61/1/3
f 65/1/3 63/1/3 61/1/3
f 65/2/3 64/2/3 63/2/3
f 66/2/3 64/2/3 65/2/3
f 67/1/3 65/1/3 61/1/3
f 68/1/3 65/1/3 67/1/3
f 71/1/3 70/1/3 69/1/3
f 72/1/3 70/1/3 71/1/3
f 76/2/3 73/2/3 72/2/3
f 77/2/3 73/2/3 76/2/3
f 78/2/3 73/2/3 77/2/3
f 80/3/3 75/3/3 74/3/3
f 81/3/3 75/3/3 80/3/3
f 83/2/3 79/2/3 78/2/3
f 83/2/3 78/2/3 77/2/3
f 84/2/3 79/2/3 83/2/3
f 85/2/3 79/2/3 84/2/3
f 87/2/3 83/2/3 82/2/3
f 87/2/3 84/2/3 83/2/3
f 88/2/3 84/2/3 87/2/3
f 89/1/3 87/1/3 86/1/3
f 90/1/3 87/1/3 89/1/3
f 91/1/4 92/1/4 93/1/4
f 93/1/4 92/1/4 94/1/4
f 94/2/4 95/2/4 98/2/4
f 98/2/4 95/2/4 99/2/4
f 99/2/4 95/2/4 100/2/4
f 96/3/4 97/3/4 102/3/4
f 102/3/4 97/3/4 103/3/4
f 100/2/4 101/2/4 105/2/4
f 99/2/4 100/2/4 105/2/4
f 105/2/4 101/2/4 106/2/4
f 106/2/4 101/2/4 107/2/4
f 104/2/4 105/2/4 109/2/4
f 105/2/4 106/2/4 109/2/4
f 109/2/4 106/2/4 110/2/4
f 108/1/4 109/1/4 111/1/4
f 111/1/4 109/1/4 112/1/4
f 113/1/4 114/1/4 115/1/4
f 113/1/4 115/1/4 117/1/4
f 115/2/4 116/2/4 117/2/4
f 117/2/4 116/2/4 118/2/4
f 113/1/4 117/1/4 119/1/4
f 119/1/4 117/1/4 120/1/4
f 123/3/5 122/3/5 121/3/5
f 124/3/5 122/3/5 123/3/5
f 128/1/5 126/1/5 125/1/5
f 129/1/5 126/1/5 128/1/5
f 130/1/5 126/1/5 129/1/5
f 131/1/5 126/1/5 130/1/5
f 133/1/5 128/1/5 127/1/5
f 133/1/5 129/1/5 128/1/5
f 134/1/5 129/1/5 133/1/5
f 135/1/5 129/1/5 134/1/5
f 136/1/5 132/1/5 131/1/5
f 136/1/5 131/1/5 130/1/5
f 137/1/5 132/1/5 136/1/5
f 138/1/5 132/1/5 137/1/5
f 139/1/5 135/1/5 134/1/5
f 139/1/5 137/1/5 136/1/5
f 139/1/5 136/1/5 135/1/5
f 140/1/5 137/1/5 139/1/5
f 141/1/6 142/1/6 146/1/6
f 146/1/6 142/1/6 147/1/6
f 143/1/6 144/1/6 148/1/6
f 148/1/6 144/1/6 149/1/6
f 145/1/6 146/1/6 151/1/6
f 151/1/6 146/1/6 152/1/6
f 149/1/6 150/1/6 155/1/6
f 155/1/6 150/1/6 156/1/6
f 152/1/6 153/1/6 157/1/6
f 157/1/6 153/1/6 158/1/6
f 154/1/6 155/1/6 159/1/6
f 159/1/6 155/1/6 160/1/6
f 161/2/6 162/2/6 163/2/6
f 163/2/6 162/2/6 164/2/6
f 165/2/6 166/2/6 167/2/6
f 167/2/6 166/2/6 168/2/6
f 169/2/6 170/2/6 173/2/6
f 173/2/6 170/2/6 174/2/6
f 171/2/6 172/2/6 175/2/6
f 175/2/6 172/2/6 176/2/6
f 177/2/6 178/2/6 179/2/6
f 179/2/6 178/2/6 180/2/6
